<?xml version="1.0" encoding="iso-8859-1"?>
<!-- Uploaded to: SVG Repo, www.svgrepo.com, Generator: SVG Repo Mixer Tools -->
<!DOCTYPE svg PUBLIC "-//W3C//DTD SVG 1.1//EN" "http://www.w3.org/Graphics/SVG/1.1/DTD/svg11.dtd">
<svg fill="#000000" version="1.1" id="Capa_1" xmlns="http://www.w3.org/2000/svg" xmlns:xlink="http://www.w3.org/1999/xlink" 
	 width="800px" height="800px" viewBox="0 0 49.823 49.823"
	 xml:space="preserve">
<g>
	<g>
		<path d="M40.212,47.721c0.188,0.205,0.455,0.318,0.731,0.318h3.941c0.312,0,0.604-0.146,0.791-0.389l3.94-5.108
			c0.291-0.378,0.273-0.909-0.039-1.271l-3.434-3.922v-8.82c0-0.168-0.043-0.334-0.125-0.479l-2.724-4.952l1.259-7.483
			c0.049-0.29-0.033-0.587-0.225-0.812c-0.19-0.226-0.472-0.354-0.765-0.354h-2.887c-0.431,0-0.812,0.274-0.947,0.681l-1.649,4.9
			l-12.469,2.245h-3.797L23.5,17.01c0.051-0.158,0.062-0.327,0.03-0.49L20.905,2.591c-0.081-0.435-0.438-0.763-0.877-0.81
			c-0.434-0.049-0.856,0.2-1.027,0.606l-3.947,9.374h-2.515l-6.008-8.01c-0.225-0.301-0.598-0.45-0.972-0.385
			c-0.37,0.065-0.673,0.332-0.784,0.691L1.357,15.153c-0.015,0.05-0.026,0.101-0.034,0.152l-1.313,9.14
			c-0.057,0.397,0.129,0.791,0.473,0.998l6.488,3.924l1.329,4.937l-5.932,6.428c-0.089,0.097-0.157,0.207-0.202,0.328l-2.103,5.638
			c-0.115,0.307-0.072,0.649,0.115,0.92c0.187,0.27,0.493,0.431,0.821,0.431h5.519c0.393,0,0.749-0.229,0.911-0.589l1.764-3.893
			l3.172-3.173l2.374,0.478l-1.567,5.92c-0.079,0.303-0.015,0.621,0.175,0.867c0.188,0.244,0.481,0.391,0.792,0.391h5.519
			c0.537,0,0.979-0.426,0.999-0.961l0.229-5.826l8.604-0.957c0.174-0.02,0.338-0.082,0.479-0.186l4.967-3.611l5.246,7.297
			l-0.234,3.17C39.929,47.242,40.023,47.515,40.212,47.721z M35.977,34.514c-0.154-0.215-0.393-0.36-0.652-0.403
			c-0.27-0.041-0.531,0.022-0.746,0.18l-5.565,4.051l-9.199,1.019c-0.491,0.053-0.869,0.459-0.889,0.952l-0.226,5.728h-3.259
			l1.508-5.691c0.07-0.27,0.027-0.552-0.118-0.785c-0.146-0.232-0.382-0.396-0.652-0.449l-3.941-0.789
			c-0.328-0.065-0.667,0.035-0.903,0.271l-3.68,3.679C7.568,42.359,7.5,42.461,7.45,42.57l-1.572,3.471H2.441l1.53-4.104
			l6.173-6.688c0.233-0.252,0.32-0.604,0.231-0.938l-1.577-5.854c-0.067-0.25-0.228-0.463-0.448-0.596l-6.266-3.789l1.208-8.407
			l2.815-9.145l5.13,6.839c0.188,0.252,0.485,0.4,0.8,0.4h3.679c0.402,0,0.766-0.241,0.922-0.612l2.916-6.925l1.965,10.416
			l-2.024,6.329c-0.098,0.304-0.044,0.636,0.145,0.896c0.188,0.258,0.488,0.409,0.808,0.409h5.255c0.062,0,0.119-0.005,0.177-0.016
			l13.141-2.365c0.357-0.065,0.654-0.319,0.771-0.665l1.61-4.78h0.99l-1.119,6.66c-0.037,0.222,0.002,0.45,0.111,0.646l2.766,5.029
			v8.94c0,0.242,0.089,0.478,0.248,0.657l3.14,3.587l-3.142,4.067h-2.375l0.185-2.459c0.02-0.231-0.049-0.467-0.187-0.656
			L35.977,34.514z"/>
	</g>
</g>
</svg>